<svg width="16" height="16" viewBox="0 0 16 16" fill="none" xmlns="http://www.w3.org/2000/svg">
<path fill-rule="evenodd" clip-rule="evenodd" d="M8 3.5C8.82843 3.5 9.5 2.82843 9.5 2H11H12C13.1046 2 14 2.89543 14 4V13C14 14.1046 13.1046 15 12 15H4C2.89543 15 2 14.1046 2 13V4C2 2.89543 2.89543 2 4 2H5H6.5C6.5 2.82843 7.17157 3.5 8 3.5ZM12 3H11C11 3.55228 10.5523 4 10 4H6C5.44772 4 5 3.55228 5 3H4C3.44772 3 3 3.44772 3 4V13C3 13.5523 3.44772 14 4 14H12C12.5523 14 13 13.5523 13 13V4C13 3.44772 12.5523 3 12 3Z" fill="white"/>
<circle cx="8" cy="2" r="1" stroke="white"/>
<line x1="5" y1="5.5" x2="11" y2="5.5" stroke="white"/>
<line x1="5" y1="7.5" x2="11" y2="7.5" stroke="white"/>
<line x1="5" y1="9.5" x2="11" y2="9.5" stroke="white"/>
<line x1="5" y1="11.5" x2="9" y2="11.5" stroke="white"/>
</svg>
