<svg width="16" height="16" viewBox="0 0 16 16" fill="none" xmlns="http://www.w3.org/2000/svg">
<path d="M15.5 8C15.5 8.22399 15.3451 8.68343 14.9501 9.30087C14.5709 9.89375 14.0145 10.5634 13.321 11.1921C11.9266 12.4563 10.0412 13.5 8 13.5C5.95884 13.5 4.0734 12.4563 2.67898 11.1921C1.98551 10.5634 1.42914 9.89375 1.04987 9.30087C0.654881 8.68343 0.5 8.22399 0.5 8C0.5 7.77601 0.654881 7.31657 1.04987 6.69913C1.42914 6.10625 1.98551 5.43663 2.67898 4.80793C4.0734 3.54375 5.95884 2.5 8 2.5C10.0412 2.5 11.9266 3.54375 13.321 4.80793C14.0145 5.43663 14.5709 6.10625 14.9501 6.69913C15.3451 7.31657 15.5 7.77601 15.5 8Z" stroke="#262A32"/>
<circle cx="8" cy="8" r="2.5" stroke="#262A32"/>
</svg>
