<svg width="16" height="16" viewBox="0 0 16 16" fill="none" xmlns="http://www.w3.org/2000/svg">
<path d="M2 8.6875L1.77086 8.2431C1.59287 8.33487 1.48681 8.52399 1.50131 8.72371C1.51582 8.92344 1.64808 9.09525 1.83746 9.16034L2 8.6875ZM14 2.5L14.4879 2.60919C14.5303 2.41973 14.4592 2.22286 14.3055 2.10422C14.1519 1.98558 13.9434 1.96662 13.7709 2.0556L14 2.5ZM12 11.4375L11.8587 11.9171C11.9914 11.9562 12.1344 11.9386 12.2537 11.8684C12.3729 11.7982 12.4577 11.6817 12.4879 11.5467L12 11.4375ZM7.33333 10.0625L6.95826 9.73186C6.87775 9.82319 6.83333 9.94075 6.83333 10.0625H7.33333ZM6.83333 13.5C6.83333 13.7761 7.05719 14 7.33333 14C7.60948 14 7.83333 13.7761 7.83333 13.5H6.83333ZM2.22914 9.1319L14.2291 2.9444L13.7709 2.0556L1.77086 8.2431L2.22914 9.1319ZM13.5121 2.39081L11.5121 11.3283L12.4879 11.5467L14.4879 2.60919L13.5121 2.39081ZM12.1413 10.9579L7.47465 9.58289L7.19202 10.5421L11.8587 11.9171L12.1413 10.9579ZM6.83333 10.0625V13.5H7.83333V10.0625H6.83333ZM1.83746 9.16034L5.83746 10.5353L6.16254 9.58966L2.16254 8.21466L1.83746 9.16034ZM13.6249 2.16936L6.95826 9.73186L7.7084 10.3931L14.3751 2.83064L13.6249 2.16936Z" fill="white"/>
</svg>
